# xmcd CD database file generated by Grip 2.5
# 
# Track frame offsets:
#       150
#       26340
#       48425
#       76112
#       104757
# 
# Disc length: 1745 seconds
# 
# Revision: 3
# Processed by: cddbd v1.4b41PL1 Copyright (c) Steve Scherf et al.
# Submitted via: Grip 2.5
# 
DISCID=3306cf05
DTITLE=Ê¿°æ·ø - why
DYEAR=1900
DGENRE=
TTITLE0=why
TTITLE1=wonderful world
TTITLE2=why (CASSETTE VISION remix)
TTITLE3=wonderful world (KREVA remix feat. KREVA from KICK THE CAN CREW)
TTITLE4=why (less vocal)
EXTD=
EXTT0=
EXTT1=
EXTT2=
EXTT3=
EXTT4=
PLAYORDER=
